<?xml version="1.0" encoding="UTF-8" standalone="no"?>
<!DOCTYPE svg PUBLIC "-//W3C//DTD SVG 1.1//EN" "http://www.w3.org/Graphics/SVG/1.1/DTD/svg11.dtd">
<svg width="100%" height="100%" viewBox="0 0 7778 2223" version="1.1" xmlns="http://www.w3.org/2000/svg" xmlns:xlink="http://www.w3.org/1999/xlink" xml:space="preserve" xmlns:serif="http://www.serif.com/" style="fill-rule:evenodd;clip-rule:evenodd;stroke-linejoin:round;stroke-miterlimit:1.41421;">
    <g transform="matrix(5.55556,0,0,5.55556,0,0)">
        <g transform="matrix(4.16667,0,0,4.16667,-1145.42,-164.751)">
            <path d="M304.119,89.834L303.925,89.372C303.982,89.348 304.043,89.335 304.108,89.333C304.117,89.334 304.125,89.334 304.133,89.334C304.226,89.339 304.311,89.365 304.382,89.408L304.119,89.834Z" style="fill:rgb(160,216,210);fill-rule:nonzero;"/>
        </g>
        <g transform="matrix(4.16667,0,0,4.16667,-1145.42,-164.751)">
            <path d="M376.452,95.5C378.387,95.5 378.387,92.5 376.452,92.5C374.517,92.5 374.517,95.5 376.452,95.5Z" style="fill:rgb(143,210,202);fill-rule:nonzero;"/>
        </g>
        <g transform="matrix(4.16667,0,0,4.16667,-1145.42,-164.751)">
            <path d="M303.785,91.334C305.72,91.334 305.72,88.334 303.785,88.334C301.851,88.334 301.851,91.334 303.785,91.334Z" style="fill:rgb(143,210,202);fill-rule:nonzero;"/>
        </g>
        <g transform="matrix(4.16667,0,0,4.16667,-1145.42,-164.751)">
            <path d="M303.785,92.834C307.655,92.834 307.655,86.834 303.785,86.834C299.916,86.834 299.916,92.834 303.785,92.834Z" style="fill:rgb(143,210,202);fill-rule:nonzero;"/>
        </g>
        <g transform="matrix(4.16667,0,0,4.16667,-1145.42,-164.751)">
            <path d="M364.452,76.5C368.321,76.5 368.321,70.5 364.452,70.5C360.583,70.5 360.583,76.5 364.452,76.5Z" style="fill:rgb(143,210,202);fill-rule:nonzero;"/>
        </g>
        <g transform="matrix(4.16667,0,0,4.16667,-1145.42,-164.751)">
            <path d="M357.119,135.5C360.988,135.5 360.988,129.5 357.119,129.5C353.249,129.5 353.249,135.5 357.119,135.5Z" style="fill:rgb(143,210,202);fill-rule:nonzero;"/>
        </g>
        <g transform="matrix(4.16667,0,0,4.16667,-1145.42,-164.751)">
            <path d="M270.119,59.089L288.895,69.794L263.952,87.912L270.119,59.089Z" style="fill:rgb(246,215,23);fill-rule:nonzero;"/>
        </g>
        <g transform="matrix(4.16667,0,0,4.16667,-1145.42,-164.751)">
            <path d="M330.952,136C332.887,136 332.887,133 330.952,133C329.017,133 329.017,136 330.952,136Z" style="fill:rgb(246,215,23);fill-rule:nonzero;"/>
        </g>
        <g transform="matrix(4.16667,0,0,4.16667,-1145.42,-164.751)">
            <path d="M380.452,65C382.387,65 382.387,62 380.452,62C378.517,62 378.517,65 380.452,65Z" style="fill:rgb(246,215,23);fill-rule:nonzero;"/>
        </g>
        <g transform="matrix(4.16667,0,0,4.16667,-508.321,-212.45)">
            <path d="M437.027,126.926L426.504,103.31L457.772,111.74L457.772,112.025L437.027,126.926Z" style="fill:rgb(215,238,235);fill-rule:nonzero;"/>
        </g>
        <g transform="matrix(4.16667,0,0,4.16667,-508.321,-212.45)">
            <path d="M393.952,126C395.887,126 395.887,123 393.952,123C392.017,123 392.017,126 393.952,126Z" style="fill:rgb(143,210,202);fill-rule:nonzero;"/>
        </g>
        <g transform="matrix(4.16667,0,0,4.16667,-508.321,-212.45)">
            <path d="M421.952,127.5C423.887,127.5 423.887,124.5 421.952,124.5C420.017,124.5 420.017,127.5 421.952,127.5Z" style="fill:rgb(143,210,202);fill-rule:nonzero;"/>
        </g>
        <g transform="matrix(4.16667,0,0,4.16667,-508.321,-212.45)">
            <path d="M439.785,143.667C441.72,143.667 441.72,140.667 439.785,140.667C437.851,140.667 437.851,143.667 439.785,143.667Z" style="fill:rgb(143,210,202);fill-rule:nonzero;"/>
        </g>
        <g transform="matrix(4.16667,0,0,4.16667,-508.321,-212.45)">
            <path d="M382.785,81.334C384.72,81.334 384.72,78.334 382.785,78.334C380.851,78.334 380.851,81.334 382.785,81.334Z" style="fill:rgb(143,210,202);fill-rule:nonzero;"/>
        </g>
        <g transform="matrix(4.16667,0,0,4.16667,-508.321,-212.45)">
            <path d="M400.785,89.167C404.655,89.167 404.655,83.167 400.785,83.167C396.916,83.167 396.916,89.167 400.785,89.167Z" style="fill:rgb(143,210,202);fill-rule:nonzero;"/>
        </g>
        <g transform="matrix(4.16667,0,0,4.16667,-508.321,-212.45)">
            <path d="M413.952,127.5C415.887,127.5 415.887,124.5 413.952,124.5C412.017,124.5 412.017,127.5 413.952,127.5Z" style="fill:rgb(246,215,23);fill-rule:nonzero;"/>
        </g>
    </g>
</svg>
